HIERARCHY
ROOT Hips
{
	OFFSET 0.000000 0.000000 0.000000
	CHANNELS 6 Xposition Yposition Zposition Xrotation Yrotation Zrotation
	JOINT LeftUpLeg_virtual
	{
		OFFSET 0.000000 0.000000 0.000000
		CHANNELS 3 Xrotation Yrotation Zrotation
		JOINT LeftUpLeg
		{
			OFFSET 15.427100 -6.655098 0.678600
			CHANNELS 3 Xrotation Yrotation Zrotation
			JOINT LeftLeg
			{
				OFFSET 4.081073 -39.591068 13.024000
				CHANNELS 3 Xrotation Yrotation Zrotation
				JOINT LeftFoot
				{
					OFFSET -4.081074 -37.707932 -15.979700
					CHANNELS 3 Xrotation Yrotation Zrotation
					JOINT LeftToeBase
					{
						OFFSET 5.346399 -15.068900 20.645000
						CHANNELS 3 Xrotation Yrotation Zrotation
						JOINT LeftToe_End
						{
							OFFSET 2.754700 0.931300 11.300900
							CHANNELS 3 Xrotation Yrotation Zrotation
							End Site
							{
								OFFSET 0 0 0
							}
						}
					}
				}
			}
		}
	}
	JOINT RightUpLeg_virtual
	{
		OFFSET 0.000000 0.000000 0.000000
		CHANNELS 3 Xrotation Yrotation Zrotation
		JOINT RightUpLeg
		{
			OFFSET -15.569500 -6.655098 0.678600
			CHANNELS 3 Xrotation Yrotation Zrotation
			JOINT RightLeg
			{
				OFFSET -4.081825 -39.591045 13.023800
				CHANNELS 3 Xrotation Yrotation Zrotation
				JOINT RightFoot
				{
					OFFSET 4.081824 -37.707954 -15.979600
					CHANNELS 3 Xrotation Yrotation Zrotation
					JOINT RightToeBase
					{
						OFFSET -5.346400 -15.068900 20.645000
						CHANNELS 3 Xrotation Yrotation Zrotation
						JOINT RightToe_End
						{
							OFFSET -2.754700 0.931300 11.300900
							CHANNELS 3 Xrotation Yrotation Zrotation
							End Site
							{
								OFFSET 0 0 0
							}
						}
					}
				}
			}
		}
	}
	JOINT Spine_virtual
	{
		OFFSET 0.000000 0.000000 0.000000
		CHANNELS 3 Xrotation Yrotation Zrotation
		JOINT Spine
		{
			OFFSET -0.279200 12.230698 -2.892100
			CHANNELS 3 Xrotation Yrotation Zrotation
			JOINT Spine1
			{
				OFFSET -0.232667 10.192268 -1.242267
				CHANNELS 3 Xrotation Yrotation Zrotation
				JOINT Spine1_split
				{
					OFFSET -0.232667 10.192268 -1.242267
					CHANNELS 3 Xrotation Yrotation Zrotation
					JOINT Spine2
					{
						OFFSET -0.232667 10.192268 -1.242267
						CHANNELS 3 Xrotation Yrotation Zrotation
						JOINT Neck_virtual
						{
							OFFSET 0.000000 0.000000 0.000000
							CHANNELS 3 Xrotation Yrotation Zrotation
							JOINT Neck
							{
								OFFSET -0.418800 17.814194 8.416900
								CHANNELS 3 Xrotation Yrotation Zrotation
								JOINT Head
								{
									OFFSET 0.000000 7.031097 3.806800
									CHANNELS 3 Xrotation Yrotation Zrotation
									JOINT HeadTop_End
									{
										OFFSET 0.000000 24.646606 12.978600
										CHANNELS 3 Xrotation Yrotation Zrotation
										End Site
										{
											OFFSET 0 0 0
										}
									}
								}
							}
						}
						JOINT LeftShoulder_virtual
						{
							OFFSET 0.000000 0.000000 0.000000
							CHANNELS 3 Xrotation Yrotation Zrotation
							JOINT LeftShoulder
							{
								OFFSET 8.476499 7.247704 -3.868750
								CHANNELS 3 Xrotation Yrotation Zrotation
								JOINT LeftShoulder_split
								{
									OFFSET 8.476499 7.247704 -3.868750
									CHANNELS 3 Xrotation Yrotation Zrotation
									JOINT LeftArm
									{
										OFFSET 9.308998 -2.777710 0.208600
										CHANNELS 3 Xrotation Yrotation Zrotation
										JOINT LeftForeArm
										{
											OFFSET 29.972298 0.000000 0.000000
											CHANNELS 3 Xrotation Yrotation Zrotation
											JOINT LeftHand
											{
												OFFSET 26.026505 0.000000 0.000000
												CHANNELS 3 Xrotation Yrotation Zrotation
												End Site
												{
													OFFSET 0 0 0
												}
											}
										}
									}
								}
							}
						}
						JOINT RightShoulder_virtual
						{
							OFFSET 0.000000 0.000000 0.000000
							CHANNELS 3 Xrotation Yrotation Zrotation
							JOINT RightShoulder
							{
								OFFSET -7.570500 7.247704 -3.868750
								CHANNELS 3 Xrotation Yrotation Zrotation
								JOINT RightShoulder_split
								{
									OFFSET -7.570500 7.247704 -3.868750
									CHANNELS 3 Xrotation Yrotation Zrotation
									JOINT RightArm
									{
										OFFSET -9.308998 -2.777710 0.208500
										CHANNELS 3 Xrotation Yrotation Zrotation
										JOINT RightForeArm
										{
											OFFSET -29.972300 0.000000 0.000000
											CHANNELS 3 Xrotation Yrotation Zrotation
											JOINT RightHand
											{
												OFFSET -26.026505 0.000000 0.000000
												CHANNELS 3 Xrotation Yrotation Zrotation
												End Site
												{
													OFFSET 0 0 0
												}
											}
										}
									}
								}
							}
						}
					}
				}
			}
		}
	}
}
MOTION
Frames: 5
Frame Time: 0.03333333
48.379757 70.141525 228.547714 0.000000 0.000000 0.000000 -3.158264 20.802651 -13.123850 -3.858028 3.923332 -6.004421 68.359921 2.972983 0.160805 3.829865 2.396007 21.177661 -0.641828 -0.648658 -0.942214 0.000000 0.000000 0.000000 0.348684 23.471510 -13.822266 -44.939534 16.132186 5.220127 37.280023 1.524038 -2.852987 8.105238 5.340002 10.468082 -7.373386 -1.762288 -0.106226 0.000000 0.000000 0.000000 -1.171725 25.668585 -12.773606 3.073701 -10.358311 -2.561385 3.399398 -2.641409 1.248713 -0.266575 0.265724 -0.014063 0.000000 0.000000 0.000000 2.524394 -4.046196 2.220031 -1.810323 3.048054 0.765093 -10.323462 34.249342 4.856478 0.000000 0.000000 0.000000 1.682414 -3.116393 1.660909 -0.522350 -0.388468 -9.117330 1.983536 3.904998 0.123009 17.171468 -13.255204 -46.053257 36.917815 -85.777149 32.839573 0.000000 0.000000 0.000000 2.847283 -3.645494 1.737086 0.459502 -4.501332 8.092197 2.622273 8.479968 -1.614236 36.750632 11.248169 50.844458 179.902142 84.916887 177.584809 0.000000 0.000000 0.000000 
53.320374 67.348679 240.337875 0.000000 0.000000 0.000000 -5.277787 19.617987 -13.553134 -22.693858 7.394829 -4.991863 83.545904 3.904922 1.149837 1.861970 -0.495966 22.964800 -7.191199 -1.143454 0.893514 0.000000 0.000000 0.000000 -0.425568 26.276696 -15.000690 -35.062506 12.575619 5.755330 50.142533 -1.022800 -0.572731 -15.115929 2.744134 2.297820 -5.921313 -1.703053 0.599134 0.000000 0.000000 0.000000 -4.793708 26.953760 -12.705609 6.058405 -7.138793 -2.091409 3.881647 -1.061845 1.447233 -0.508155 0.875233 0.091327 0.000000 0.000000 0.000000 3.088876 -2.515083 2.478723 -2.986155 2.755033 0.756750 -10.072711 31.801931 4.683971 0.000000 0.000000 0.000000 2.636481 -1.454552 1.555335 -0.326324 0.182195 -9.698928 1.192212 2.125127 -1.841418 27.577089 -15.635474 -50.692144 13.594361 -71.603154 9.467850 0.000000 0.000000 0.000000 3.716329 -1.894035 1.738271 -0.000525 -2.936391 10.539561 2.745887 7.542997 -0.273757 22.793005 17.752362 52.109590 -127.682655 89.358668 124.619738 0.000000 0.000000 0.000000 
57.052277 65.594978 249.887878 0.000000 0.000000 0.000000 -6.365578 19.817968 -13.947543 -41.923568 9.992810 -2.748498 94.273017 4.970998 1.785818 -0.651276 -3.136656 24.623592 -14.827820 -1.653561 1.907998 0.000000 0.000000 0.000000 -1.381446 29.196135 -15.469653 -28.639782 9.870243 5.252249 62.523128 -0.598363 1.834335 -31.220481 4.026543 -1.731620 -6.093338 -1.493834 1.032087 0.000000 0.000000 0.000000 -7.791333 27.971498 -12.682066 8.449342 -3.876470 -1.432017 4.432717 0.331779 1.527677 0.010010 1.420005 0.227164 0.000000 0.000000 0.000000 3.814914 -1.003600 2.539916 -3.377784 2.466178 0.839136 -9.683765 29.206732 4.741884 0.000000 0.000000 0.000000 3.516392 0.085084 1.550309 -0.172163 0.838800 -9.018537 0.038171 0.519005 -2.882089 34.371821 -17.611020 -54.493681 10.181999 -62.033663 6.989900 0.000000 0.000000 0.000000 4.601529 -0.335287 1.592527 -0.440906 -2.280911 11.942844 3.219790 6.020410 0.184777 8.112960 21.615056 54.823418 -92.125482 89.239727 89.272703 0.000000 0.000000 0.000000 
59.724957 64.680641 256.533813 0.000000 0.000000 0.000000 -5.864199 20.265854 -14.590013 -57.124953 10.054310 0.072845 99.690982 5.612512 1.717184 -0.523501 -3.452619 25.095010 -17.780605 -1.459475 1.024206 0.000000 0.000000 0.000000 -2.242457 31.050088 -15.694129 -24.985447 8.492008 3.297680 69.572252 2.940365 2.883297 -37.636221 6.279184 0.424479 -8.949501 -1.343243 1.095517 0.000000 0.000000 0.000000 -9.098304 28.408457 -13.248740 9.762312 -1.039100 -0.509844 4.947030 1.295692 1.476009 0.549599 1.973531 0.321360 0.000000 0.000000 0.000000 4.599491 0.193729 2.416354 -3.107344 2.135948 1.127695 -9.478891 27.068805 4.958203 0.000000 0.000000 0.000000 4.143433 1.289118 1.626601 -0.092834 1.364297 -7.641681 -0.901974 -0.816286 -2.217638 37.756220 -17.773119 -57.500590 7.568334 -59.480368 5.993255 0.000000 0.000000 0.000000 5.272284 0.752970 1.350342 -0.635571 -2.328673 12.088413 3.789978 4.455502 0.221484 -3.028786 22.612511 57.075957 -158.443545 87.824799 156.474798 0.000000 0.000000 0.000000 
61.802334 64.283875 261.157959 0.000000 0.000000 0.000000 -4.127182 21.092213 -15.643800 -66.215207 8.504386 3.044225 100.415290 5.989188 0.666972 1.869524 -1.055130 25.695904 -16.668588 -0.959845 -0.255722 0.000000 0.000000 0.000000 -2.248894 30.812110 -16.284517 -22.697852 8.002834 0.680490 70.986047 7.123543 2.710777 -37.804339 7.892740 5.071957 -10.200040 -1.335262 0.856526 0.000000 0.000000 0.000000 -8.694836 27.883670 -14.303605 9.838404 1.053803 0.734479 5.355695 1.719992 1.352892 0.758702 1.676229 0.297633 0.000000 0.000000 0.000000 5.283740 0.882803 2.237012 -2.593535 1.873932 1.603589 -9.876315 25.870146 5.285626 0.000000 0.000000 0.000000 4.502125 1.911720 1.689482 -0.073080 1.625457 -6.142736 -1.233761 -1.480363 -1.250463 38.388317 -16.753930 -59.671586 4.541318 -62.084268 4.621471 0.000000 0.000000 0.000000 5.707502 1.282745 1.102893 -0.522214 -2.616585 11.365706 4.522817 3.701476 -0.092923 -8.638570 21.347606 58.159477 -169.092944 86.116828 168.230865 0.000000 0.000000 0.000000 
